<?xml version="1.0" encoding="utf-8"?>
<!-- Generator: Adobe Illustrator 25.2.3, SVG Export Plug-In . SVG Version: 6.00 Build 0)  -->
<svg version="1.1" id="Capa_1" xmlns="http://www.w3.org/2000/svg" xmlns:xlink="http://www.w3.org/1999/xlink" x="0px" y="0px"
	 viewBox="0 0 384 512" style="enable-background:new 0 0 384 512;" xml:space="preserve">
<style type="text/css">
	.st0{fill:#FFFFFF;}
</style>
<path class="st0" d="M54.6,246.6L192,109.3l137.4,137.4c6.2,6.2,14.4,9.3,22.6,9.3s16.4-3.1,22.6-9.4c12.5-12.5,12.5-32.8,0-45.2
	l-160-160c-12.5-12.5-32.8-12.5-45.2,0l-160,160c-12.5,12.5-12.5,32.8,0,45.2S42.1,259.1,54.6,246.6z M214.6,233.4
	c-12.5-12.5-32.8-12.5-45.2,0l-160,160c-12.5,12.5-12.5,32.8,0,45.2s32.8,12.5,45.2,0L192,301.3l137.4,137.4
	c6.2,6.2,14.4,9.3,22.6,9.3s16.4-3.1,22.6-9.4c12.5-12.5,12.5-32.8,0-45.2L214.6,233.4z"/>
</svg>
