<?xml version="1.0" encoding="utf-8"?>
<!-- Generator: Adobe Illustrator 25.2.3, SVG Export Plug-In . SVG Version: 6.00 Build 0)  -->
<svg version="1.1" id="Capa_1" xmlns="http://www.w3.org/2000/svg" xmlns:xlink="http://www.w3.org/1999/xlink" x="0px" y="0px"
	 viewBox="0 0 512 512" style="enable-background:new 0 0 512 512;" xml:space="preserve">
<style type="text/css">
	.st0{fill:#008080;}
</style>
<path class="st0" d="M435.1,64.7c-3.3-13.4-15.3-23.6-29.1-23.6H106c-13.8,0-25.8,9.4-29.1,22.7l-57.4,234c-2.3,9.4-3.5,19-3.5,28.7
	V417c0,24.9,20.2,45,45,45H451c24.9,0,45-20.2,45-45v-90.5c0-9.7-1.2-19.3-3.5-28.7L435.1,64.7z M346,342H166l-30-60H84.4l45-180
	h253.2l45,180H376L346,342z"/>
</svg>
