<?xml version="1.0" encoding="utf-8"?>
<!-- Generator: Adobe Illustrator 25.2.3, SVG Export Plug-In . SVG Version: 6.00 Build 0)  -->
<svg version="1.1" id="Layer_1" xmlns="http://www.w3.org/2000/svg" xmlns:xlink="http://www.w3.org/1999/xlink" x="0px" y="0px"
	 viewBox="0 0 1554.7 674.6" style="enable-background:new 0 0 1554.7 674.6;" xml:space="preserve">
<style type="text/css">
	.st0{stroke:#000000;stroke-miterlimit:10;}
	.st1{font-family:'AgencyFB-Reg';}
	.st2{font-size:75.827px;}
	.st3{letter-spacing:9;}
	.st4{fill:none;stroke:#000000;stroke-width:4;stroke-miterlimit:10;}
	.st5{fill:none;stroke:#000000;stroke-width:15;stroke-miterlimit:10;}
	.st6{fill:none;stroke:#000000;stroke-width:22;stroke-miterlimit:10;}
	.st7{clip-path:url(#SVGID_2_);}
	.st8{clip-path:url(#SVGID_4_);}
	.st9{stroke:#000000;stroke-width:4;stroke-miterlimit:10;}
	.st10{stroke:#000000;stroke-width:0.6387;stroke-miterlimit:10;}
	.st11{fill:none;stroke:#000000;stroke-width:3;stroke-miterlimit:10;}
	.st12{stroke:#000000;stroke-width:0.5;stroke-miterlimit:10;}
	.st13{fill:none;stroke:#000000;stroke-width:5.3384;stroke-miterlimit:10;}
	.st14{stroke:#000000;stroke-width:3;stroke-miterlimit:10;}
	.st15{clip-path:url(#SVGID_6_);}
	.st16{clip-path:url(#SVGID_8_);}
	.st17{clip-path:url(#SVGID_10_);}
	.st18{clip-path:url(#SVGID_12_);}
	.st19{clip-path:url(#SVGID_16_);}
	.st20{clip-path:url(#SVGID_18_);}
	.st21{clip-path:url(#SVGID_20_);}
	.st22{clip-path:url(#SVGID_22_);}
	.st23{clip-path:url(#SVGID_26_);}
	.st24{clip-path:url(#SVGID_28_);}
</style>
<text transform="matrix(1 0 0 1 712.9356 310.6054)"><tspan x="0" y="0" class="st0 st1 st2 st3">Producción de </tspan><tspan x="0" y="82.3" class="st0 st1 st2 st3">contenido interactivo</tspan></text>
<g>
	<path class="st4" d="M425.9,243.5h50.4c1.9,0,3.5-1.6,3.5-3.5v-22.9c0-1.9-1.6-3.5-3.5-3.5h-50.4c-1.9,0-3.5,1.6-3.5,3.5V240
		C422.3,241.9,423.9,243.5,425.9,243.5z"/>
	<path class="st5" d="M337.2,43.1c0,77.7,128,140.6,286.1,140.6"/>
	<path class="st5" d="M337.2,43.1c0,84.8-128.1,153.4-286.5,153.4"/>
	<polygon class="st6" points="337.2,43.1 632.5,178.7 641.3,467.8 354.8,621.2 59.5,485.5 50.7,196.5 	"/>
	<g id="Artwork_1_2_">
		<g>
			<defs>
				
					<rect id="SVGID_5_" x="202.9" y="16.3" transform="matrix(3.146094e-02 -0.9995 0.9995 3.146094e-02 25.8863 647.9257)" width="288.7" height="588.6"/>
			</defs>
			<clipPath id="SVGID_2_">
				<use xlink:href="#SVGID_5_"  style="overflow:visible;"/>
			</clipPath>
			<g class="st7">
				<defs>
					
						<rect id="SVGID_7_" x="202.9" y="16.3" transform="matrix(3.146094e-02 -0.9995 0.9995 3.146094e-02 25.8863 647.9257)" width="288.7" height="588.6"/>
				</defs>
				<clipPath id="SVGID_4_">
					<use xlink:href="#SVGID_7_"  style="overflow:visible;"/>
				</clipPath>
				<path class="st8" d="M519.1,240.7c1.6-17.1,3.5-37.7,3.8-53.1l0.6,0c4.4,14.6,9.9,30.1,16.6,47.3l23.4,60.5l14,0.4l25-57.9
					c7.4-17.1,13.6-32.8,18.1-47.3l0.4,0c-0.1,15.3,0.4,36,1.1,54.5l2.2,52.9l17.7,0.6L636,175.3l-23.6-0.7L586,233.3
					c-6.4,15-11.8,28.3-15.8,41l-0.6,0c-3.2-12.5-7.9-26.2-13.8-41.9L532.1,172l-23.6-0.7L495.7,294l18.1,0.6L519.1,240.7z"/>
				<path class="st8" d="M384.8,291.3c-1.3,42.4,28,65.8,64.6,66.9c37.9,1.2,65.3-23.2,66.4-60.4c1.2-39.1-26.3-65.5-64.6-66.7
					C412.1,229.8,386,254.8,384.8,291.3 M496,296.8c-0.8,26.3-18.2,49.3-47.3,48.4c-29.4-0.9-45.2-24.6-44.4-52.6
					c0.8-24.5,16.5-49.6,47.3-48.6C482.3,245,496.9,269.8,496,296.8"/>
				<path class="st8" d="M400.4,418.2l3.9-123l-20.2-0.6l-47.9,60.8c-11.1,14.1-19.8,26.8-27,39.2l-0.4-0.2
					c2.2-16.4,3.1-31.3,3.7-50.5l1.6-51.5l-17.4-0.5l-3.9,123l18.7,0.6l47.5-61c10.4-13.4,20.5-27.1,28.1-40.2l0.6,0.2
					c-1.6,15.5-2.4,30.3-3.1,50.7l-1.7,52.6L400.4,418.2z"/>
				<polygon class="st8" points="262.6,304.2 306.2,305.6 306.7,292.1 200.5,288.8 200,302.3 243.9,303.7 240.4,413.2 259.2,413.8 
									"/>
				<polygon class="st8" points="141.3,299.7 197,301.4 195.6,345.8 133.5,343.9 133.1,357.2 213.7,359.7 217.6,236.7 140.2,234.2 
					139.7,247.6 198.7,249.4 197.5,288.3 141.7,286.5 				"/>
				<path class="st8" d="M131.4,427c-8.4,4.1-20.7,7.4-33.5,7c-18.9-0.6-29.7-9.5-29.3-21.9c0.4-11.5,8.2-17.8,27.8-23.6
					c23.6-6.4,38.4-16.3,39-33.7c0.6-19.2-17.5-34-45.3-34.9c-14.7-0.5-25.4,2.1-31.9,5l4.7,13.1c4.8-2,14.4-5.4,27.4-5
					c19.6,0.6,26.7,10.9,26.4,19.3c-0.4,11.5-9.3,16.9-29.3,22.8c-24.5,7.3-37.2,16.9-37.7,35c-0.6,19,15.3,35.9,49.1,37
					c13.8,0.4,29.1-2.6,36.8-6.7L131.4,427z"/>
			</g>
		</g>
	</g>
	<path class="st5" d="M354.8,617.7c0-84.8,128.1-153.4,286.5-153.4"/>
	<path class="st5" d="M60.8,480.6C128.9,430,260.4,492,354.8,619"/>
	<path class="st9" d="M254.7,575.2c-6-2.7-11.9-5.5-17.9-8.2c1.5-52,3.2-104,5.3-156.1c0.8-21.5,1.7-43,2.6-64.4
		c5.1-5.2,10.2-10.3,15.3-15.5C258.2,412.4,256.4,493.8,254.7,575.2z"/>
	<path class="st4" d="M414.7,306c0,14.6,10.5,26.4,23.5,26.4"/>
	<circle class="st10" cx="451.1" cy="293.4" r="7.5"/>
	<circle class="st11" cx="451.1" cy="293.4" r="14.9"/>
	<path class="st4" d="M421.4,306c0,10.4,7.5,18.9,16.8,18.9"/>
	<g>
		<path d="M569.7,339.8c0.7,0,1.5-0.2,2.2,0c1.7,0.6,3.3,1.4,4.9,2.1c1,0.5,2,1.1,3,1.6c5,2.5,10,4.8,14.9,7.4
			c1.8,0.9,3.3,2.3,5,3.4c2.7,1.7,5.4,3.2,8,5c3.6,2.5,6.4,5.7,7.9,9.9c1.3,3.7-0.8,7.4-4.7,7.9c-2.4,0.3-4.6,0.4-7-0.9
			c-1.7-1-3.4-1.7-4.9-3.1c-1.8-1.7-3.6-3.4-5.4-5.2c-2.1-2-4.3-3.8-6.1-6.1c-1.6-2.1-3.2-4.2-5.2-6.1c-2.7-2.6-4.8-5.8-7.1-8.7
			c-1.1-1.3-2.2-2.6-3.4-3.9c-0.4-0.5-1-0.9-1.6-1.5C570,341,569.9,340.4,569.7,339.8z M581,350.7c3.3,3.9,6.6,7.8,10.1,11.6
			c2.1,2.3,4.5,4.3,6.8,6.3c2,1.7,4,3.3,6.2,4.6c2.3,1.4,4.8,1.7,7.3,0.4c1.3-0.7,1.5-1.4,1.6-2.8c0.2-3.9-2.6-5.8-5-8.1
			c-1.9-1.9-4.2-3.2-6.4-4.6c-4-2.6-8.2-5-12.4-7.4c-0.7-0.4-1.5-0.9-2.3-1.1c-2.3-0.6-4.1-1.9-6.1-3.1c-1.4-0.8-3-1.5-4.5-2.2
			c-0.1,0.1-0.2,0.2-0.3,0.4C577.6,346.6,579.3,348.7,581,350.7z"/>
		<path d="M564.1,407.7c0.8,2.1,1.9,4.2,2.2,6.4c0.7,4.7-3.1,8.1-7.6,7.4c-3.5-0.6-6.5-2.5-8.4-5.4c-1.7-2.6-3-5.6-4.5-8.4
			c-0.4-0.7-0.8-1.4-1-2.2c-1.5-4-2.9-8-4.4-12.1c-1.6-4.4-3.3-8.7-4.7-13.1c-1.2-3.8-2.9-7.6-2.9-11.7c0-0.6,0.3-1.3,0.7-1.6
			c0.3-0.2,1.3-0.1,1.6,0.3c1.9,2.1,3.7,4.3,5.4,6.5c2,2.5,3.8,5.1,5.8,7.6c1.4,1.8,3.1,3.3,4.2,5.2c0.9,1.6,2,2.9,3.2,4.1
			c0.4,0.4,0.9,0.8,1.2,1.3c1.1,1.6,2.1,3.2,3.2,4.8C560.5,400.2,562.6,403.7,564.1,407.7z M536.1,372.6c1,3.9,1.9,7.9,3.1,11.7
			c1.1,3.7,2.5,7.3,3.9,10.8c2.3,5.4,4.6,10.8,7.1,16.2c1.7,3.6,4.4,6.3,8.6,7.1c2.1,0.4,4-0.4,4.6-2.5c0.6-2.2,0.9-4.3-0.6-6.4
			c-1.1-1.6-1.6-3.5-2.5-5.2c-1-1.9-2.3-3.6-3.2-5.7c-0.8-1.7-2.3-3.1-3.4-4.6c-0.8-1-1.4-2.1-2.2-3.1c-2-2.8-4-5.6-6.1-8.3
			c-1.2-1.6-2.6-3.2-3.8-4.8c-1.1-1.4-2.1-2.8-3.2-4.1c-0.6-0.7-1.3-1.4-2-2.1c-0.1,0.1-0.3,0.2-0.4,0.3
			C536,372.1,536,372.4,536.1,372.6z"/>
		<path d="M490.9,387.4c0.2,1,0.4,2,0.6,2.9c0.9,3.4,1.8,6.7,2.6,10.1c0.7,3.1,1.3,6.2,2,9.2c0.1,0.6,0.3,1.2,0.4,1.8
			c0.4,2.2,0.8,4.3,1.2,6.5c0.2,1.3,0.6,2.7,0.7,4c0.3,3.9,0.6,7.9-0.5,11.7c0,0,0,0.1,0,0.1c0.4,4-2.5,6.3-5.8,7.7
			c-1.3,0.5-2.5,0.4-3.7-0.4c-4-2.6-6-6.4-6.3-10.9c-0.3-3.3-0.1-6.6,0-9.9c0.2-7,1-13.9,3.4-20.6c0.1-0.4,0.2-0.8,0.2-1.2
			c0.3-3.2,1.8-6.1,2.9-9.1c0.3-0.9,1.2-1.5,1.8-2.3C490.6,387.3,490.8,387.3,490.9,387.4z M487.9,399.5c-0.3,1.8-1,3.5-1.4,5.2
			c-0.1,0.3-0.2,0.6-0.2,0.9c-0.4,2.5-1,4.9-1.3,7.4c-0.2,1.9-0.3,3.8-0.3,5.7c-0.1,3.4-0.4,6.8-0.2,10.2c0.2,3.8,1.6,7.2,5.1,9.4
			c0.7,0.5,1.5,0.5,2.3,0.1c2.2-1.1,3.4-2.9,4-5.2c0.4-1.8,0.7-3.7,1.1-5.6c0-0.2,0-0.5,0-0.7c-0.5-3-1.1-6-1.5-9
			c-0.9-6.5-2.7-12.9-3.7-19.5c-0.3-1.6-0.9-3.2-1.5-5.1C488.9,395.5,488.3,397.4,487.9,399.5z"/>
		<path d="M439.7,393.1c0.6,0.3,0.8,1,0.6,1.8c-0.2,0.8-0.2,1.7-0.2,2.6c0,1,0.1,2.1-0.1,3.1c-0.7,5-1.7,10.1-2.2,15.1
			c-0.4,4.5-2.2,8.4-4,12.4c-1.1,2.4-3,3.9-5.4,4.7c-2.2,0.7-5.5-0.4-6.1-2.2c-1.2-3.5-1.2-7,0.5-10.5c1.3-2.7,2.6-5.4,3.9-8.1
			c1.2-2.3,2.4-4.6,3.9-6.8c1.1-1.6,2.4-3.1,2.9-5c0.1-0.3,0.4-0.6,0.6-0.9c0.6-0.8,1.2-1.5,1.7-2.3c0.8-1.2,1.5-2.5,2.3-3.9
			C438.7,393.2,439.3,392.9,439.7,393.1z M435.9,401.2c-1.9,3.2-3.9,6.3-5.7,9.5c-1.3,2.3-2.3,4.9-3.7,7.2c-1.4,2.2-2,4.5-2.4,6.9
			c-0.2,1.3-0.3,2.5,0.5,3.7c0.8,1.2,1.9,1.5,3,1.2c1-0.3,2.1-0.8,2.8-1.5c2.3-2.6,3.5-5.9,4.4-9.1c0.9-3.2,1.1-6.6,1.6-9.9
			c0.4-2.6,0.9-5.3,1.3-7.9c0.1-0.6,0-1.3,0-2c-0.1,0-0.2-0.1-0.4-0.1C436.8,399.9,436.3,400.5,435.9,401.2z"/>
	</g>
	<g>
		<path class="st12" d="M279.6,230.1c1.1,1.9,2.1,3.3,2.9,4.9c1.6,3.2,3.9,5.4,7.8,5.7c0.9,0.1,1.9,1.1,2.7,1.8
			c1.5,1.5,2.6,3.3,4.2,4.6c2.7,2.3,6.2,1.4,7.1-2c1.1-4.1,2-8.4,2.5-12.6c0.6-4.1-2.8-6.2-6.6-4.5c-1.3,0.6-2.5,1.3-4.8,2.6
			c1.4-5.2,2-9.8,3.8-13.9c1.4-3.2,3.6-6.3,8.6-5.3c3,0.6,6.5-1.2,9.6-0.6c4.2,0.8,8.2,2.7,12.3,4.3c1.9,0.7,4.6,1.3,5.3,2.8
			c1.5,3,2.5,6.5,2.6,9.8c0.1,3.3-1.3,6.6-2.2,10.8c-1.3-1.6-2-3-3.1-3.7c-1.4-0.9-3.4-2.1-4.8-1.7c-1.4,0.3-2.9,2.2-3.3,3.7
			c-1.1,3.7-1.8,7.6-2.4,11.4c-0.7,4.1,2.3,6.4,6.3,5c4.8-1.6,8.7-4,9.1-9.8c0.1-1,1.1-2.3,2-2.7c2.5-1.2,5.2-1.9,8-2.9
			c4.2,5.4,5.6,5,10.3-3.5c1.6,5.3,3,10,4.8,15.7c2.5-4.2,1.7-7.9,2-11.3c0.3-3.5,0.2-7,0.2-10.5c0-3.6,0-7.3,0.8-10.9
			c0.9,17.4,1.9,34.9,2.8,52.3c0.6,0,1.3,0,1.9,0c0.8-12.8,1.6-25.6,2.3-38.5c0.3-0.1,0.5-0.1,0.8-0.2c1.2,2.6,2.3,5.3,3.7,7.8
			c3.1,5.6,7.1,5.8,10.6,0.4c1.7-2.6,2.7-5.6,4.3-8.9c1.4,2.2,2.6,4.1,3.7,6.1c1.6,2.7,3.7,4.3,6.9,4.3c6.6,0,13.3,0.1,19.9,0
			c0.6,0,1.1-0.3,1.7-1.3c-0.9-0.2-1.7-0.5-2.6-0.5c-5.5,0-10.9-0.2-16.4,0c-4.1,0.2-6.8-1.4-8.8-5.1c-1.2-2.1-3.3-3.7-5-5.5
			c-1.1,1.9-2.1,4-3.5,5.8c-1.8,2.4-3.8,4.6-5.7,6.9c-1.7-2.2-3.6-4.2-5-6.6c-1.4-2.3-2.4-5-4.2-7.4c-4.3,6.7-2.1,14.1-3.7,21
			c-1.5-16-1.3-32.1-3.3-48.1c-0.6,0-1.3,0-1.9,0c-1.7,13-0.9,26.1-2,39.9c-1.1-2.4-1.8-4.2-2.7-5.9c-0.5-0.8-1.5-1.7-2.3-1.7
			c-0.7,0-1.4,1.2-2.1,1.9c-0.2,0.2-0.2,0.5-0.3,0.7c-2.2,5.2-2.4,5.2-5.9,0.7c-0.3-0.4-0.7-0.8-1.1-1.1c-0.2-0.2-0.5-0.2-0.4-0.2
			c-2.8,1.6-5.5,3-8.1,4.5c-0.3-0.3-0.6-0.6-0.9-0.9c0.5-2.6,1-5.2,1.5-7.8c1.3-6.2-0.5-11.4-3.2-17.1c-5.1-10.9-14.1-11.8-24-11.1
			c-6.7,0.5-15.8,10.1-17.4,17.8c-1.1,5.1-2,10.2-3.2,15.2c-0.3,1.2-1.3,3.4-1.7,3.3c-1.5-0.2-3.3-0.9-4.4-2c-1.3-1.3-2-3.3-3.2-4.9
			c-1-1.3-2.3-2.2-3.5-3.3c-1,1.4-2.1,2.7-3,4.2c-1.4,2.3-2.4,4.9-4,7.1c-1.5,2.1-3.6,2.1-4.9-0.4c-1.5-2.8-2.7-5.9-4.3-8.7
			c-0.6-1.2-1.7-2.1-2.6-3.1c-0.7,1.3-1.9,2.5-2.1,3.8c-0.6,5.9-0.8,11.8-1.4,17.8c-1.7-16.2-1-32.6-4.3-48.8
			c-2.9,12.9-1.6,26.1-2.8,40c-1.2-2.6-2-4.6-3-6.4c-1.3-2.3-2.8-2-4,0.2c-0.1,0.2-0.2,0.5-0.3,0.7c-2.6,5.8-2.6,5.8-6.2,0.8
			c-0.4-0.5-0.9-0.9-1.7-1.6c-4.6,6.2-11.3,4.5-17.5,4.8c-3.4,0.1-6.8,0-10.2,0.4c4.2,2.9,22.7,1.5,27.5-1.8
			c5.4,5.6,6.7,5.3,10.8-3.2c1.7,5.4,3.2,10.1,4.7,14.9c0.6-0.1,1.1-0.1,1.7-0.2c0.3-9.9,0.6-19.8,0.9-29.8c0.3,0,0.5,0,0.8,0
			c0.9,16.7,1.7,33.5,2.6,50.2c0.5,0,1,0,1.5,0c2.5-12.6,1.3-25.6,3.1-39.5c1.9,3.9,3.1,6.9,4.7,9.5c2.8,4.7,6.8,4.8,9.7,0.3
			C276.7,236.8,277.8,233.6,279.6,230.1z"/>
	</g>
	<path class="st14" d="M625.2,292.9c2.3,56.4,4.6,112.8,6.9,169.3c-0.2,3.7-0.5,7.3-0.7,11c3.3-1.8,6.6-3.6,9.9-5.3
		c-0.2-58.2-0.4-116.4-0.7-174.6C635.5,293.1,630.4,293,625.2,292.9z"/>
	<path class="st0" d="M383.6,605.8c-0.1-62.7-0.3-130.8-0.4-193.6c0-2.3,1.5-11.6,8.1-16.4c0.7-0.5,4.3-3.1,6.5-1.8
		c1,0.6,1.7,1.9,2.2,8c0.2,3,0.4,6.5,0.3,10.2c0.1,61.5,0.2,123,0.2,184.5C394.9,599.7,389.3,602.7,383.6,605.8z"/>
	<path class="st14" d="M53,489.8c0.6-95.1-2.9-198.2-2.3-293.3c4.1-2,8.3-4,12.4-6c0.8,100.8,1.7,201.6,2.5,302.4
		C59.3,491.2,59.5,490.8,53,489.8z"/>
</g>
</svg>
