<?xml version="1.0" encoding="utf-8"?>
<!-- Generator: Adobe Illustrator 25.2.3, SVG Export Plug-In . SVG Version: 6.00 Build 0)  -->
<svg version="1.1" id="Capa_1" xmlns="http://www.w3.org/2000/svg" xmlns:xlink="http://www.w3.org/1999/xlink" x="0px" y="0px"
	 viewBox="0 0 512 512" style="enable-background:new 0 0 512 512;" xml:space="preserve">
<style type="text/css">
	.st0{fill:#FFFFFF;stroke:#000000;stroke-width:4;stroke-miterlimit:10;}
</style>
<path class="st0" d="M256,0C114.6,0,0,114.6,0,256s114.6,256,256,256s256-114.6,256-256S397.4,0,256,0z M256,464
	c-114.7,0-208-93.3-208-208S141.3,48,256,48s208,93.3,208,208S370.7,464,256,464z M255.1,176L255.1,176c21.1,0,40.9,8.3,55.8,23.4
	c9.4,9.3,24.5,9.5,34,0.2c9.4-9.3,9.5-24.5,0.2-34c-24-24.2-56-37.6-89.9-37.6c0,0,0,0,0,0c-34,0-65.9,13.3-89.9,37.6
	c-49.4,49.9-49.4,131,0,180.9c24,24.2,56,37.6,89.9,37.6c0,0,0,0,0,0c34,0,65.9-13.3,89.9-37.6c9.3-9.4,9.2-24.6-0.2-34
	c-9.4-9.3-24.6-9.2-34,0.2C296,327.7,276.2,336,255.1,336c0,0,0,0,0,0c-21.1,0-40.9-8.3-55.9-23.4c-30.9-31.2-30.9-82,0-113.3
	C214.2,184.3,234,176,255.1,176z"/>
</svg>
