<?xml version="1.0" encoding="utf-8"?>
<!-- Generator: Adobe Illustrator 25.2.3, SVG Export Plug-In . SVG Version: 6.00 Build 0)  -->
<svg version="1.1" id="Capa_1" xmlns="http://www.w3.org/2000/svg" xmlns:xlink="http://www.w3.org/1999/xlink" x="0px" y="0px"
	 viewBox="0 0 512 512" style="enable-background:new 0 0 512 512;" xml:space="preserve">
<style type="text/css">
	.st0{fill:#FFFFFF;stroke:#000000;stroke-width:7;stroke-miterlimit:10;}
</style>
<path class="st0" d="M232.6,377.5c3.2-4.8,5.7-10,7.5-15.2c21.8,0.8,43.6-9.5,56.5-29c3.2-4.8,5.7-10,7.5-15.2
	c21.8,0.8,43.6-9.5,56.5-29c1.4-2.1,2.6-4.1,3.7-6.2l42.4,28.2c29.8,19.8,70.3,11.6,90.1-18.2s11.6-70.2-18.3-90l-147.6-97.9
	c-2.5-22.7-14.5-44.3-35-57.8l-37.5-24.9c-24.1-16-54.8-17.9-80.2-4.9l-51.5,26.4c-18.9,9.7-35.2,24.2-46.9,41.8l-53.8,81
	c-38.6,58.2-21.4,137.7,38.2,177.3l78.2,51.9C172.4,415.5,212.8,407.4,232.6,377.5z M254.5,279.4c9.9,6.6,12.6,20.1,6.1,30
	c-6.5,9.9-20.1,12.6-30,6.1l-36-23.9c-9.9-6.5-12.7-20.1-6.2-30.1c6.5-9.9,20.1-12.6,30-6.1L254.5,279.4z M318.5,235.2
	c9.9,6.6,12.6,20.1,6.1,30c-6.5,9.9-20.1,12.6-30,6.1l-36.1-24c-2.3-1.5-4.1-3.5-5.5-5.5c9.1-5.2,17.3-12.2,23.5-21.5l6-9.1
	L318.5,235.2z M454.6,238.9c9.9,6.6,12.6,20.1,6.1,30c-6.5,9.9-20.1,12.6-30,6.1l-132.3-87.9l20-30.1c1.3-2,2.2-4.2,3.3-6.3
	c0.2,0.2,0.5,0.1,0.7,0.3L454.6,238.9z M62.2,190.4l53.8-81.1c7.6-11.4,18.2-20.9,30.6-27.2L198,55.8c11.5-5.9,25.5-4.9,36.5,2.4
	l37.5,24.9c16.6,11,21.1,33.5,10.1,50l-41.9,63.1c-7.7,11.6-23.4,14.7-35,7.1c-11.6-7.7-14.7-23.4-7.1-35l26-39.1
	c6.5-9.9,3.9-23.4-6.1-30c-10-6.7-23.4-3.8-30,6.1l-26,39.1c-16.6,25-14.3,56.8,3,79.4c-4.8,3.8-9.1,8.4-12.7,13.7
	c-2.5,3.8-4,7.9-5.6,12.1c-24.3-3.8-49.4,5.6-64.3,28.1c-3.9,5.8-6.2,12-8,18.3C46.2,267.8,40.2,223.7,62.2,190.4z M124.4,331.7
	c-9.9-6.6-12.6-20.1-6.1-30s20.1-12.6,30-6.1l42.1,27.9c9.9,6.6,12.6,20.1,6.1,30c-6.5,9.9-20.1,12.6-30,6.1L124.4,331.7z"/>
</svg>
